<svg xmlns="http://www.w3.org/2000/svg" viewBox="0 0 400 400" width="400" height="400">
  <defs>
    <linearGradient id="bgGrad" x1="0%" y1="0%" x2="100%" y2="100%">
      <stop offset="0%" style="stop-color:#6C3AED;stop-opacity:1" />
      <stop offset="100%" style="stop-color:#2563EB;stop-opacity:1" />
    </linearGradient>
    <linearGradient id="pinGrad" x1="0%" y1="0%" x2="0%" y2="100%">
      <stop offset="0%" style="stop-color:#FFFFFF;stop-opacity:1" />
      <stop offset="100%" style="stop-color:#E0E7FF;stop-opacity:1" />
    </linearGradient>
  </defs>

  <!-- Background sin bordes redondeados ni sombra para fundir con el fondo -->
  <rect x="0" y="0" width="400" height="400" fill="url(#bgGrad)"/>

  <!-- Subtle road/path lines -->
  <path d="M 80 310 Q 150 250 200 220 Q 260 185 320 160" stroke="rgba(255,255,255,0.12)" stroke-width="40" fill="none" stroke-linecap="round"/>
  <path d="M 80 310 Q 150 250 200 220 Q 260 185 320 160" stroke="rgba(255,255,255,0.08)" stroke-width="60" fill="none" stroke-linecap="round"/>

  <!-- Location pin icon -->
  <g transform="translate(200, 148)">
    <path d="M 0 -58 C -32 -58 -52 -36 -52 -10 C -52 24 0 62 0 62 C 0 62 52 24 52 -10 C 52 -36 32 -58 0 -58 Z" fill="url(#pinGrad)"/>
    <circle cx="0" cy="-12" r="18" fill="url(#bgGrad)"/>
    <circle cx="0" cy="-12" r="8" fill="#FFFFFF"/>
  </g>

  <!-- MOVI text -->
  <text x="200" y="278" font-family="'Segoe UI', 'Helvetica Neue', Arial, sans-serif" font-size="72" font-weight="800" fill="#FFFFFF" text-anchor="middle" letter-spacing="8">
    MOVI
  </text>

  <!-- Tagline -->
  <text x="200" y="312" font-family="'Segoe UI', 'Helvetica Neue', Arial, sans-serif" font-size="16" font-weight="400" fill="rgba(255,255,255,0.7)" text-anchor="middle" letter-spacing="4">
    MUEVETE Y GANA
  </text>
</svg>